<svg width="23" height="16" viewBox="0 0 23 16" fill="none" xmlns="http://www.w3.org/2000/svg">
<g id="chevron down2 1" clip-path="url(#clip0_180_737)">
<path id="Vector" d="M20.7031 1.58313C20.3568 1.19437 19.9238 1 19.4043 1C18.8848 1 18.4427 1.19437 18.0781 1.58313L10.75 10.2135L3.42188 1.58313C3.05729 1.19437 2.61524 1 2.0957 1C1.57617 1 1.14323 1.19437 0.796875 1.58313C0.43229 1.97189 0.25 2.43839 0.25 2.98264C0.25 3.5269 0.43229 3.9934 0.796875 4.38216L9.32812 14.4412C9.51042 14.6355 9.72917 14.7813 9.98438 14.8785C10.2396 14.9757 10.4948 15.0146 10.75 14.9951C11.0052 15.0146 11.2604 14.9757 11.5156 14.8785C11.7708 14.7813 11.9896 14.6355 12.1719 14.4412L20.7031 4.38216C21.0677 3.9934 21.25 3.5269 21.25 2.98264C21.25 2.43839 21.0677 1.97189 20.7031 1.58313Z" fill="white"/>
</g>
<defs>
<clipPath id="clip0_180_737">
<rect width="22.75" height="14.375" fill="white" transform="translate(0.25 0.8125)"/>
</clipPath>
</defs>
</svg>
