<svg style="" width="29.437500" height="29.437500" version="1.1" xmlns="http://www.w3.org/2000/svg">
<path d="M27.812500 -0.000000 L1.625000 -0.000000 C1.166664 -0.000000 0.781252 0.156248 0.468750 0.468750 C0.156248 0.781252 0.000000 1.166664 0.000000 1.625000 L0.000000 27.812500 C0.000000 28.270836 0.156248 28.656248 0.468750 28.968750 C0.781252 29.281252 1.166664 29.437500 1.625000 29.437500 L15.718750 29.437500 L15.718750 18.031250 L11.875000 18.031250 L11.875000 13.593750 L15.718750 13.593750 L15.718750 10.312500 C15.718750 8.416657 16.249995 6.963547 17.312500 5.953125 C18.375005 4.942703 19.749992 4.437500 21.437500 4.437500 C21.458333 4.437500 21.479167 4.437500 21.500000 4.437500 C21.520833 4.437500 21.541667 4.437500 21.562500 4.437500 C22.145836 4.437500 22.723955 4.453125 23.296875 4.484375 C23.869795 4.515625 24.437497 4.562500 25.000000 4.625000 L24.875000 8.593750 L22.531250 8.593750 C21.593745 8.593750 20.989585 8.791665 20.718750 9.187500 C20.447915 9.583335 20.312500 10.104163 20.312500 10.750000 L20.312500 13.593750 L24.718750 13.593750 L24.156250 18.031250 L20.312500 18.031250 L20.312500 29.437500 L27.812500 29.437500 C28.270836 29.437500 28.656248 29.281252 28.968750 28.968750 C29.281252 28.656248 29.437500 28.270836 29.437500 27.812500 L29.437500 1.625000 C29.437500 1.625000 29.437500 1.625000 29.437500 1.625000 C29.437500 1.625000 29.437500 1.625000 29.437500 1.625000 C29.437500 1.166664 29.281252 0.781252 28.968750 0.468750 C28.656248 0.156248 28.270836 -0.000000 27.812500 -0.000000 Z M30.718750 28.718750" style="fill:black"/>
</svg>