<svg width="29.438" height="29.438" xmlns="http://www.w3.org/2000/svg"><path d="M27.813 0H1.625C1.167 0 .781.156.469.469A1.571 1.571 0 0 0 0 1.625v26.188c0 .458.156.843.469 1.156.312.312.698.468 1.156.468h14.094V18.032h-3.844v-4.437h3.844v-3.281c0-1.896.531-3.35 1.594-4.36 1.062-1.01 2.437-1.516 4.125-1.516h.125A31.84 31.84 0 0 1 25 4.625l-.125 3.969h-2.344c-.937 0-1.541.198-1.812.594-.271.395-.407.916-.407 1.562v2.844h4.407l-.563 4.437h-3.843v11.407h7.5c.458 0 .843-.157 1.156-.47.312-.312.468-.697.468-1.155V1.625c0-.458-.156-.844-.468-1.156A1.571 1.571 0 0 0 27.812 0Zm2.906 28.719" style="fill:#000"/></svg>