<svg width="24" height="24.063" xmlns="http://www.w3.org/2000/svg"><path d="M12 5.844c-.854 0-1.656.156-2.406.468A6.418 6.418 0 0 0 7.64 7.641a6.418 6.418 0 0 0-1.329 1.953A6.193 6.193 0 0 0 5.845 12c0 .854.156 1.656.468 2.406.334.75.777 1.401 1.329 1.953a6.418 6.418 0 0 0 1.953 1.328c.75.313 1.552.47 2.406.47.854 0 1.656-.157 2.406-.47a6.418 6.418 0 0 0 1.953-1.328 6.418 6.418 0 0 0 1.328-1.953c.313-.75.47-1.552.47-2.406 0-.854-.157-1.656-.47-2.406A6.418 6.418 0 0 0 16.36 7.64a6.418 6.418 0 0 0-1.953-1.329A6.193 6.193 0 0 0 12 5.845ZM12 16a3.854 3.854 0 0 1-2.828-1.172A3.854 3.854 0 0 1 8 12c0-1.104.39-2.047 1.172-2.828A3.854 3.854 0 0 1 12 8c1.104 0 2.047.39 2.828 1.172A3.854 3.854 0 0 1 16 12c0 1.104-.39 2.047-1.172 2.828A3.854 3.854 0 0 1 12 16Zm7.844-10.406c0 .416-.14.76-.422 1.031-.281.27-.62.406-1.016.406s-.734-.135-1.015-.406c-.282-.27-.422-.615-.422-1.031 0-.396.14-.73.422-1 .28-.271.62-.407 1.015-.407.396 0 .735.136 1.016.407.281.27.422.604.422 1Zm3.531-1.438a6.097 6.097 0 0 0-3.469-3.5l-.031-.031a8.265 8.265 0 0 0-2.906-.531h-.032A37.179 37.179 0 0 0 15.22.016C14.698.006 13.625 0 12 0c-1.625 0-2.698.005-3.219.016-.52.01-1.093.036-1.719.078-.52 0-1.03.052-1.53.156-.5.104-.98.24-1.438.406l.062-.031a6.414 6.414 0 0 0-2.125 1.406A6.174 6.174 0 0 0 .656 4.094l-.031.062a7.34 7.34 0 0 0-.39 1.375c-.094.5-.152 1.01-.172 1.532-.021.645-.037 1.223-.047 1.734C.006 9.307 0 10.375 0 12c0 1.625.005 2.698.016 3.219.01.52.026 1.104.046 1.75.021.5.079.99.172 1.468.094.48.224.959.391 1.438.333.813.802 1.52 1.406 2.125a6.174 6.174 0 0 0 2.063 1.375h.062c.417.188.87.333 1.36.438.49.104.994.156 1.515.156h.032c.645.041 1.223.067 1.734.078.51.01 1.578.015 3.203.015 1.625 0 2.698-.005 3.219-.015.52-.01 1.104-.037 1.75-.078.52 0 1.031-.052 1.531-.157.5-.104.98-.24 1.438-.406l-.063.032A6.414 6.414 0 0 0 22 22.03a6.174 6.174 0 0 0 1.375-2.062v-.063c.188-.458.328-.932.422-1.422.094-.49.14-.984.14-1.484.021-.646.037-1.224.047-1.734.01-.51.016-1.578.016-3.204V8.829c0-.51-.02-1.088-.063-1.734 0-.521-.052-1.037-.156-1.547a8.113 8.113 0 0 0-.437-1.453l.031.062ZM21.75 16.844c0 .416-.036.817-.11 1.203a5.677 5.677 0 0 1-.328 1.11l.032-.063a3.834 3.834 0 0 1-.907 1.39 4.261 4.261 0 0 1-1.343.891h-.032c-.333.146-.687.25-1.062.313-.375.062-.76.104-1.156.125-.646.02-1.214.036-1.703.046-.49.01-1.547.016-3.172.016-1.625 0-2.683-.005-3.172-.016-.49-.01-1.057-.026-1.703-.047a8.424 8.424 0 0 1-1.188-.14 7.694 7.694 0 0 1-1.093-.297h.03c-.52-.188-.978-.48-1.374-.875a4.054 4.054 0 0 1-.906-1.375v-.031a5.707 5.707 0 0 1-.297-1.032 6.214 6.214 0 0 1-.11-1.187 25.607 25.607 0 0 1-.062-1.688V8.829c0-.49.02-1.057.062-1.703 0-.396.037-.786.11-1.172.073-.385.182-.755.328-1.11l-.031.032c.208-.52.51-.98.906-1.375a4.054 4.054 0 0 1 1.375-.906 6.62 6.62 0 0 1 1.062-.297c.375-.073.771-.11 1.188-.11.625-.02 1.187-.036 1.687-.046.5-.01 1.563-.016 3.188-.016h3.172c.49 0 1.057.02 1.703.063.396 0 .781.036 1.156.109.375.073.74.182 1.094.328l-.032-.031c.521.208.98.51 1.375.906.396.396.698.854.907 1.375.125.333.224.687.297 1.063.073.375.109.76.109 1.156v.031c.02.625.036 1.187.047 1.688.01.5.015 1.562.015 3.187v3.172c0 .49-.01 1.047-.03 1.672h-.032ZM28 26" style="fill:#000"/></svg>